<?xml version="1.0" standalone="no"?>
<!DOCTYPE svg PUBLIC "-//W3C//DTD SVG 20010904//EN"
 "http://www.w3.org/TR/2001/REC-SVG-20010904/DTD/svg10.dtd">
<svg version="1.0" xmlns="http://www.w3.org/2000/svg"
 width="268.000000pt" height="268.000000pt" viewBox="0 0 268.000000 268.000000"
 preserveAspectRatio="xMidYMid meet">
<metadata>
Created by potrace 1.11, written by Peter Selinger 2001-2013
</metadata>
<g transform="translate(0.000000,268.000000) scale(0.100000,-0.100000)"
fill="#000000" stroke="none">
<path d="M829 2543 c-129 -43 -223 -148 -233 -259 -4 -47 15 -115 51 -180 29
-53 258 -289 272 -280 4 3 19 -6 32 -20 64 -69 499 -372 707 -493 68 -39 125
-71 128 -71 2 0 46 -25 97 -56 278 -170 498 -235 639 -190 166 54 193 207 77
440 -97 194 -300 413 -570 613 -306 227 -468 332 -596 388 -40 18 -78 37 -85
42 -19 15 -123 52 -197 70 -37 9 -107 17 -157 18 -76 3 -105 -1 -165 -22z"/>
<path d="M192 1658 c-53 -18 -122 -86 -149 -147 -64 -145 -33 -311 92 -486 98
-138 297 -312 510 -445 55 -35 139 -89 187 -122 48 -32 90 -58 93 -58 3 0 24
-12 46 -26 44 -27 273 -144 283 -144 3 0 25 -9 49 -19 144 -64 298 -101 442
-106 228 -7 338 63 337 215 0 155 -140 339 -412 541 -41 31 -88 68 -105 83
-16 15 -75 61 -130 102 -55 42 -107 81 -115 87 -52 41 -389 258 -487 314 -65
37 -120 71 -123 75 -10 12 -192 95 -260 118 -75 25 -210 34 -258 18z"/>
</g>
</svg>
