<?xml version="1.0" standalone="no"?>
<!DOCTYPE svg PUBLIC "-//W3C//DTD SVG 20010904//EN"
 "http://www.w3.org/TR/2001/REC-SVG-20010904/DTD/svg10.dtd">
<svg version="1.0" xmlns="http://www.w3.org/2000/svg"
 width="260.000000pt" height="260.000000pt" viewBox="0 0 260.000000 260.000000"
 preserveAspectRatio="xMidYMid meet">
<metadata>
Created by potrace 1.11, written by Peter Selinger 2001-2013
</metadata>
<g transform="translate(0.000000,260.000000) scale(0.100000,-0.100000)"
fill="#000000" stroke="none">
<path d="M171 1516 c-46 -16 -107 -70 -127 -111 -14 -29 -20 -104 -13 -156 4
-32 55 -94 101 -122 55 -34 154 -43 203 -18 17 8 32 15 35 14 3 0 17 12 32 26
l27 27 -25 29 c-18 21 -29 27 -38 20 -56 -41 -71 -48 -109 -48 -139 0 -199
157 -91 242 52 41 133 36 183 -10 l23 -21 29 28 29 28 -21 22 c-49 53 -162 76
-238 50z"/>
<path d="M563 1505 c-136 -63 -169 -234 -66 -340 43 -45 91 -66 153 -69 89 -5
180 46 216 121 24 50 25 137 3 184 -20 40 -77 95 -118 111 -51 21 -135 18
-188 -7z m144 -66 c6 -6 17 -11 26 -13 28 -4 60 -56 64 -105 9 -106 -94 -176
-194 -131 -102 46 -107 181 -8 237 43 24 94 30 112 12z"/>
<path d="M1076 1510 c-7 -8 -25 -40 -39 -70 -14 -30 -55 -116 -90 -190 -36
-74 -63 -138 -61 -142 3 -5 23 -8 44 -8 35 0 40 3 60 43 l21 43 102 -1 101 0
18 -43 c18 -41 20 -42 64 -40 52 2 53 -2 -11 126 -23 48 -65 134 -93 192 -45
94 -53 105 -77 105 -14 0 -32 -7 -39 -15z m70 -187 c13 -31 24 -58 24 -62 0
-4 -27 -7 -60 -7 -33 0 -60 2 -60 5 0 16 45 111 52 111 5 0 6 5 2 12 -4 7 -3
8 5 4 7 -4 23 -33 37 -63z"/>
<path d="M1494 1520 c-18 -4 -45 -16 -60 -28 -85 -60 -115 -144 -89 -250 8
-35 65 -101 103 -122 80 -41 203 -27 266 31 l26 24 -24 28 c-28 33 -29 33 -69
3 -42 -31 -75 -38 -122 -25 -92 26 -130 117 -83 200 21 38 74 69 119 69 27 0
81 -23 102 -45 17 -16 19 -15 48 13 l31 30 -36 28 c-20 16 -39 27 -42 26 -4
-2 -10 2 -14 8 -9 14 -110 20 -156 10z"/>
<path d="M1831 1521 c-7 -5 -22 -6 -32 -4 -18 5 -19 -4 -19 -207 0 -184 2
-211 15 -206 8 3 15 2 15 -3 0 -4 11 -6 25 -3 27 5 27 4 29 112 l1 75 70 1
c39 0 76 -2 83 -4 8 -3 12 -25 11 -66 -2 -120 -4 -114 43 -112 l42 1 0 205 0
205 -43 0 -43 0 0 -77 c0 -43 -3 -78 -6 -79 -43 -6 -145 -2 -150 6 -4 5 -7 40
-7 77 -1 71 -11 93 -34 79z"/>
<path d="M2210 1519 c0 -4 -13 -5 -30 -3 -29 5 -28 3 53 -118 l84 -123 -1 -80
c-1 -44 3 -83 9 -87 16 -12 62 -9 72 5 5 6 9 46 8 87 0 41 3 80 7 85 43 54 78
106 78 114 0 5 6 14 13 18 19 12 68 93 63 102 -3 5 -25 5 -48 1 -24 -5 -45 -8
-46 -9 -2 0 -28 -37 -57 -82 l-53 -82 -27 44 c-15 24 -39 63 -54 86 -23 36
-71 65 -71 42z"/>
</g>
</svg>
